<svg xmlns="http://www.w3.org/2000/svg" id="Layer_1" viewBox="0 0 150 80"><defs><style>      .st0 {        fill: #f05a28;      }    </style></defs><g><g><path class="st0" d="M11.18,65.52c-.11-.89-.53-1.58-1.28-2.08-.75-.49-1.67-.74-2.76-.74-.8,0-1.49.13-2.09.39-.6.26-1.06.61-1.39,1.06-.33.45-.5.96-.5,1.54,0,.48.12.89.35,1.24.23.34.53.63.89.85.36.23.74.41,1.14.55.4.14.77.26,1.1.35l1.83.49c.47.12.99.29,1.57.51.58.22,1.13.51,1.66.88.53.37.97.85,1.31,1.43s.52,1.29.52,2.14c0,.97-.25,1.85-.76,2.64-.51.79-1.25,1.41-2.22,1.87-.97.46-2.15.69-3.53.69-1.29,0-2.4-.21-3.35-.62-.94-.42-1.68-1-2.22-1.74s-.84-1.61-.91-2.59h2.25c.06.68.29,1.24.69,1.68.4.44.91.77,1.53.98.62.21,1.29.32,2,.32.83,0,1.58-.14,2.24-.41.66-.27,1.19-.65,1.57-1.14.39-.49.58-1.06.58-1.72,0-.6-.17-1.08-.5-1.46-.33-.37-.77-.68-1.32-.91-.55-.23-1.13-.44-1.77-.62l-2.22-.63c-1.41-.4-2.52-.98-3.34-1.73-.82-.75-1.23-1.73-1.23-2.95,0-1.01.27-1.89.82-2.64.55-.75,1.29-1.34,2.22-1.76.93-.42,1.97-.63,3.12-.63s2.19.21,3.1.62c.9.41,1.62.98,2.15,1.69.53.72.81,1.53.84,2.44h-2.11Z"></path><path class="st0" d="M39.74,70.03c0,1.9-.34,3.54-1.03,4.92-.69,1.38-1.63,2.45-2.82,3.2-1.2.75-2.56,1.13-4.1,1.13s-2.9-.37-4.1-1.13c-1.2-.75-2.14-1.82-2.82-3.2-.69-1.38-1.03-3.02-1.03-4.92s.34-3.54,1.03-4.92,1.63-2.45,2.82-3.2c1.2-.75,2.56-1.13,4.1-1.13s2.9.38,4.1,1.13c1.2.75,2.14,1.82,2.82,3.2s1.03,3.02,1.03,4.92ZM37.63,70.03c0-1.56-.26-2.88-.78-3.95s-1.22-1.88-2.1-2.44c-.88-.55-1.87-.83-2.96-.83s-2.08.28-2.96.83c-.88.55-1.58,1.36-2.1,2.44-.52,1.07-.78,2.39-.78,3.95s.26,2.88.78,3.95c.52,1.07,1.22,1.88,2.1,2.44.88.55,1.87.83,2.96.83s2.08-.28,2.96-.83c.88-.55,1.58-1.36,2.1-2.44.52-1.07.78-2.39.78-3.95Z"></path><path class="st0" d="M65.32,66.65h-2.18c-.13-.63-.35-1.18-.67-1.65-.32-.47-.71-.87-1.16-1.2-.45-.33-.96-.57-1.51-.73-.55-.16-1.13-.25-1.72-.25-1.09,0-2.08.28-2.96.83-.88.55-1.58,1.36-2.1,2.44-.52,1.07-.78,2.39-.78,3.95s.26,2.88.78,3.95c.52,1.07,1.22,1.88,2.1,2.44.88.55,1.87.83,2.96.83.6,0,1.17-.08,1.72-.25.55-.16,1.05-.41,1.51-.73.45-.33.84-.73,1.16-1.2.32-.48.54-1.03.67-1.65h2.18c-.16.92-.46,1.74-.9,2.47s-.97,1.34-1.62,1.85c-.64.51-1.37.89-2.17,1.16s-1.65.4-2.56.4c-1.54,0-2.9-.37-4.1-1.13-1.2-.75-2.14-1.82-2.82-3.2-.69-1.38-1.03-3.02-1.03-4.92s.34-3.54,1.03-4.92c.69-1.38,1.63-2.45,2.82-3.2,1.2-.75,2.56-1.13,4.1-1.13.91,0,1.76.13,2.56.4s1.52.65,2.17,1.16,1.18,1.12,1.62,1.85c.43.72.73,1.55.9,2.48Z"></path><path class="st0" d="M78.45,61.02v18.01h-2.18v-18.01h2.18Z"></path><path class="st0" d="M90.24,79.03v-18.01h10.87v1.93h-8.69v6.08h8.12v1.93h-8.12v6.12h8.83v1.93h-11.01Z"></path><path class="st0" d="M111.49,62.96v-1.93h13.51v1.93h-5.66v16.07h-2.18v-16.07h-5.66Z"></path><path class="st0" d="M134.25,61.02h2.5l4.99,8.41h.21l4.99-8.41h2.5l-6.51,10.59v7.42h-2.18v-7.42l-6.51-10.59Z"></path></g><g><path class="st0" d="M28.88,3.68L11.07,21.27V5.91c0-2.9-2.35-5.26-5.26-5.26h0c-2.9,0-5.26,2.35-5.26,5.26v42.04c0,2.9,2.35,5.26,5.26,5.26h0c2.9,0,5.26-2.35,5.26-5.26v-15.5s17.95,17.72,17.95,17.72c1.97,1.94,4.62,3.03,7.39,3.03h11.45c2.9,0,5.26-2.35,5.26-5.26h0c0-2.9-2.35-5.26-5.26-5.26h-9.4c-1.35,0-2.64-.53-3.6-1.48l-11.55-11.44c-1.62-1.6-1.62-4.22,0-5.82l11.47-11.32c.96-.94,2.25-1.47,3.59-1.47h9.49c2.9,0,5.26-2.35,5.26-5.26h0c0-2.9-2.35-5.26-5.26-5.26h-11.58c-2.76,0-5.42,1.09-7.38,3.03Z"></path><rect class="st0" x="107.4" y=".65" width="42.04" height="10.51" rx="5.26" ry="5.26"></rect><rect class="st0" x="107.4" y="21.68" width="42.04" height="10.51" rx="5.26" ry="5.26"></rect><rect class="st0" x="107.4" y="42.7" width="42.04" height="10.51" rx="5.26" ry="5.26"></rect><path class="st0" d="M64.59.65h0c-2.9,0-5.26,2.35-5.26,5.26v40.51c0,3.75,3.04,6.79,6.79,6.79h30c2.9,0,5.26-2.35,5.26-5.26h0c0-2.9-2.35-5.26-5.26-5.26h-23.91c-1.3,0-2.36-1.06-2.36-2.36V5.91c0-2.9-2.35-5.26-5.26-5.26Z"></path></g></g><g><g><path class="st0" d="M42.56-58c-.05-.45-.27-.8-.65-1.05-.38-.25-.85-.38-1.4-.38-.41,0-.76.07-1.06.2-.3.13-.54.31-.71.54-.17.23-.25.49-.25.78,0,.24.06.45.18.63.12.17.27.32.45.43.18.11.38.21.58.28.2.07.39.13.56.18l.93.25c.24.06.5.15.8.26.29.11.58.26.84.45.27.19.49.43.67.73s.26.66.26,1.09c0,.49-.13.94-.39,1.34-.26.4-.63.72-1.13.95-.49.24-1.09.35-1.79.35-.66,0-1.22-.11-1.7-.32s-.85-.51-1.13-.88-.43-.82-.46-1.32h1.14c.03.35.15.63.35.86.2.22.46.39.78.5.31.11.65.16,1.02.16.42,0,.8-.07,1.14-.21s.6-.33.8-.58c.2-.25.29-.54.29-.87,0-.3-.08-.55-.25-.74-.17-.19-.39-.35-.67-.46-.28-.12-.58-.22-.9-.31l-1.13-.32c-.72-.21-1.28-.5-1.7-.88-.42-.38-.63-.88-.63-1.5,0-.51.14-.96.42-1.34.28-.38.65-.68,1.13-.89.47-.21,1-.32,1.58-.32s1.11.11,1.57.32c.46.21.82.5,1.09.86.27.36.41.78.43,1.24h-1.07Z"></path><path class="st0" d="M57.08-55.71c0,.97-.17,1.8-.52,2.5-.35.7-.83,1.25-1.43,1.63-.61.38-1.3.57-2.08.57s-1.48-.19-2.08-.57c-.61-.38-1.09-.92-1.43-1.63-.35-.7-.52-1.54-.52-2.5s.17-1.8.52-2.5.83-1.25,1.43-1.63,1.3-.57,2.08-.57,1.47.19,2.08.57,1.09.92,1.43,1.63.52,1.54.52,2.5ZM56.01-55.71c0-.79-.13-1.46-.4-2.01s-.62-.96-1.07-1.24c-.45-.28-.95-.42-1.5-.42s-1.06.14-1.5.42c-.45.28-.8.69-1.07,1.24-.26.55-.4,1.21-.4,2.01s.13,1.46.4,2.01c.26.55.62.96,1.07,1.24.45.28.95.42,1.5.42s1.06-.14,1.5-.42c.45-.28.8-.69,1.07-1.24s.4-1.21.4-2.01Z"></path><path class="st0" d="M70.08-57.43h-1.11c-.07-.32-.18-.6-.34-.84-.16-.24-.36-.44-.59-.61-.23-.17-.49-.29-.77-.37-.28-.08-.57-.13-.88-.13-.55,0-1.06.14-1.5.42-.45.28-.8.69-1.07,1.24-.26.55-.4,1.21-.4,2.01s.13,1.46.4,2.01c.26.55.62.96,1.07,1.24.45.28.95.42,1.5.42.3,0,.6-.04.88-.13.28-.08.54-.21.77-.37.23-.17.43-.37.59-.61.16-.24.28-.52.34-.84h1.11c-.08.47-.24.89-.46,1.26s-.49.68-.82.94c-.33.26-.7.45-1.1.59s-.84.2-1.3.2c-.78,0-1.48-.19-2.08-.57-.61-.38-1.09-.92-1.43-1.63-.35-.7-.52-1.54-.52-2.5s.17-1.8.52-2.5c.35-.7.83-1.25,1.43-1.63s1.3-.57,2.08-.57c.46,0,.9.07,1.3.2s.77.33,1.1.59.6.57.82.94c.22.37.37.79.46,1.26Z"></path><path class="st0" d="M76.75-60.29v9.15h-1.11v-9.15h1.11Z"></path><path class="st0" d="M82.74-51.14v-9.15h5.52v.98h-4.42v3.09h4.13v.98h-4.13v3.11h4.49v.98h-5.6Z"></path><path class="st0" d="M93.55-59.31v-.98h6.87v.98h-2.88v8.17h-1.11v-8.17h-2.88Z"></path><path class="st0" d="M105.12-60.29h1.27l2.54,4.27h.11l2.54-4.27h1.27l-3.31,5.38v3.77h-1.11v-3.77l-3.31-5.38Z"></path></g><g><path class="st0" d="M51.56-89.43l-9.06,8.94v-7.81c0-1.48-1.2-2.67-2.67-2.67h0c-1.48,0-2.67,1.2-2.67,2.67v21.37c0,1.48,1.2,2.67,2.67,2.67h0c1.48,0,2.67-1.2,2.67-2.67v-7.88s9.12,9.01,9.12,9.01c1,.99,2.35,1.54,3.75,1.54h5.82c1.48,0,2.67-1.2,2.67-2.67h0c0-1.48-1.2-2.67-2.67-2.67h-4.78c-.69,0-1.34-.27-1.83-.75l-5.87-5.82c-.82-.81-.82-2.14,0-2.96l5.83-5.75c.49-.48,1.14-.75,1.83-.75h4.82c1.48,0,2.67-1.2,2.67-2.67h0c0-1.48-1.2-2.67-2.67-2.67h-5.89c-1.4,0-2.75.55-3.75,1.54Z"></path><rect class="st0" x="91.47" y="-90.97" width="21.37" height="5.34" rx="-40.14" ry="-40.14"></rect><rect class="st0" x="91.47" y="-80.29" width="21.37" height="5.34" rx="-34.8" ry="-34.8"></rect><rect class="st0" x="91.47" y="-69.6" width="21.37" height="5.34" rx="-29.46" ry="-29.46"></rect><path class="st0" d="M69.71-90.97h0c-1.48,0-2.67,1.2-2.67,2.67v20.59c0,1.9,1.54,3.45,3.45,3.45h15.25c1.48,0,2.67-1.2,2.67-2.67h0c0-1.48-1.2-2.67-2.67-2.67h-12.16c-.66,0-1.2-.54-1.2-1.2v-17.5c0-1.48-1.2-2.67-2.67-2.67Z"></path></g></g></svg>