<svg width="137" height="75" viewBox="0 0 137 75" fill="none" xmlns="http://www.w3.org/2000/svg">
<path d="M46.7611 43.3336C50.905 44.3185 53.0983 45.898 53.0983 49.1856C53.0983 52.9775 50.1818 55.1708 46.0379 55.1708C42.9882 55.1708 40.1859 54.0765 37.75 51.9926L39.8148 49.5567C41.7655 51.1553 43.6067 52.1211 46.0427 52.1211C48.2359 52.1211 49.5729 51.1553 49.5729 49.5567C49.5729 48.0866 48.7165 47.3634 45.0578 46.507C41.0423 45.4127 38.6111 44.1852 38.6111 40.5218C38.6111 37.101 41.4182 34.7793 45.4337 34.7793C48.3692 34.7793 50.6766 35.6357 52.6273 37.2343L50.8051 39.9128C48.9639 38.5759 47.2749 37.848 45.4337 37.848C43.3688 37.848 42.1461 38.9423 42.1461 40.2839C42.1461 41.7541 43.0025 42.4772 46.7753 43.3336M74.7077 54.8187H71.0443L69.0937 50.042H59.7067L57.6276 54.8187H54.0974L62.8706 34.7841H66.0487L74.7077 54.8187ZM64.336 39.0612L60.9152 46.997H67.7568L64.336 39.0612ZM110.186 54.8234L105.3 47.8534H100.913V54.8234H97.3829V35.0315H106.156C110.671 35.0315 113.478 37.4864 113.478 41.3877C113.478 44.6753 111.527 46.6307 108.72 47.4823L114.092 55.0661H110.191L110.186 54.8234ZM106.042 38.2096H100.913V44.937H106.042C108.478 44.937 110.057 43.581 110.057 41.6304C110.057 39.3086 108.587 38.2096 106.042 38.2096ZM136.634 54.8234H132.989L130.91 50.0467H121.523L119.573 54.8234H115.909L124.683 34.7888H127.861L136.634 54.8234ZM126.281 39.066L122.86 47.0018H129.683L126.281 39.066ZM95.0611 54.8282H90.803L83.9662 45.9075L80.9165 49.0857V54.8282H77.3863V34.9173H80.9165V44.9322L90.3034 34.9173H94.7091L86.4021 43.4668L95.0611 54.8282ZM41.6656 59.0863H42.522L43.7304 63.0067L44.9579 59.2148H45.9237L44.1015 64.3436H43.3783L42.0224 60.6802L40.814 64.3436H39.9576L38.2496 59.2148H39.2344L40.4429 63.0067L41.6656 59.0863ZM51.1619 64.3436C49.5824 64.3436 48.4881 63.1161 48.4881 61.6507C48.4881 60.1854 49.5824 58.9769 51.1667 58.9769C52.751 58.9769 53.8595 60.2044 53.8595 61.6555C53.8595 63.2541 52.7653 64.3483 51.1667 64.3483M51.1667 59.9427C50.2009 59.9427 49.4777 60.7991 49.4777 61.7839C49.4777 62.7688 50.2009 63.6252 51.1667 63.6252C52.1325 63.6252 52.8747 62.7688 52.8747 61.7839C53.0032 60.6897 52.28 59.9427 51.1667 59.9427ZM60.5726 64.3483L59.3452 62.5071H58.2509V64.3483H57.3945V59.2195H59.7163C60.9247 59.2195 61.6669 59.8333 61.6669 60.7991C61.6669 61.6555 61.1674 62.155 60.4394 62.3977L61.7763 64.3483H60.5726ZM59.4784 59.9427H58.1224V61.6507H59.4784C60.0731 61.6507 60.5726 61.2987 60.5726 60.7943C60.5193 60.5461 60.3806 60.3244 60.1806 60.1679C59.9807 60.0115 59.7322 59.9301 59.4784 59.938V59.9427ZM64.7213 59.2195H65.6872V63.492H68.3657V64.3483H64.7213V59.2195ZM73.3613 64.3483H71.4297V59.2195H73.3613C74.9599 59.2195 76.0542 60.3138 76.0542 61.7839C76.1636 63.2541 75.0693 64.3483 73.3613 64.3483ZM73.3613 59.9427H72.3955V63.492H73.3613C74.4746 63.492 75.2025 62.7688 75.2025 61.7839C75.2025 60.6897 74.4794 59.9427 73.3613 59.9427ZM84.8273 62.155V64.3483H83.8615V59.2195H84.8273V61.3034H87.2633V59.2243H88.1197V64.3531H87.2633V62.1598L84.8273 62.155ZM94.1001 64.3483C92.5015 64.3483 91.4072 63.1209 91.4072 61.6555C91.4072 60.1901 92.5015 58.9817 94.1001 58.9817C95.6987 58.9817 96.7787 60.2092 96.7787 61.6602C96.7787 63.2588 95.6844 64.3531 94.1048 64.3531M94.1048 59.9475C93.12 59.9475 92.3968 60.8039 92.3968 61.7887C92.3968 62.7735 93.12 63.6299 94.1048 63.6299C95.0897 63.6299 95.8128 62.7735 95.8128 61.7887C95.9223 60.6944 95.1991 59.9475 94.1048 59.9475ZM102.022 61.3034C103.116 61.5461 103.73 61.9172 103.73 62.7735C103.73 63.7394 103.006 64.3531 101.907 64.3531C101.503 64.3618 101.102 64.2906 100.725 64.1436C100.349 63.9967 100.005 63.7768 99.7142 63.4967L100.199 62.883C100.685 63.2541 101.165 63.4967 101.779 63.4967C102.393 63.4967 102.635 63.2541 102.635 62.883C102.635 62.5119 102.393 62.2692 101.408 62.0266C100.314 61.7839 99.7189 61.4128 99.7189 60.447C99.7189 59.5907 100.442 58.9769 101.408 58.9769C102.073 58.9679 102.722 59.1842 103.249 59.5907L102.764 60.3138C102.376 60.01 101.9 59.8398 101.408 59.8285C100.923 59.8285 100.552 60.0712 100.552 60.4423C100.813 60.9276 101.051 61.0608 102.022 61.3034ZM108.973 62.6356H108.007V64.3436H107.15V59.2148H109.215C110.443 59.2148 111.166 59.938 111.166 60.9228C110.923 62.0171 110.072 62.6308 108.973 62.6308M108.973 59.938H107.878V61.7792H108.973C109.715 61.7792 110.067 61.4081 110.067 60.7943C110.067 60.3091 109.582 59.938 108.973 59.938ZM114.216 59.2148H115.072V64.3436H114.216V59.2148ZM120.815 64.3436H119.958V59.938H118.25V59.2148H122.508V59.938H120.819L120.815 64.3436ZM129.959 64.3436H128.974L128.489 63.1161H126.053L125.553 64.3436H124.459L126.781 59.0863H127.637L129.959 64.3436ZM127.152 60.1996L126.295 62.2645H128.118L127.152 60.1996ZM133.004 59.2148H133.841V63.4872H136.534V64.3436H133.004V59.2148Z" fill="#393B79"/>
<path d="M21.4123 25.752C21.2838 25.6426 21.1696 25.3999 21.0412 25.2667C20.8813 25.1053 20.6897 24.9788 20.4784 24.8952C20.2671 24.8117 20.0407 24.7729 19.8137 24.7814H19.4616C19.3332 24.7814 19.219 24.7814 19.219 24.8908H19.0905C18.9621 24.8908 18.8479 25.0193 18.6052 25.0193L16.2835 25.2619H8.71876C7.51031 25.2619 6.04494 25.2619 4.46063 24.8908C4.08953 24.7814 3.71843 24.7814 3.36636 24.7814C3.12372 24.7814 2.8668 24.7814 2.62416 24.8908C2.18855 24.956 1.7745 25.1232 1.41569 25.3786C1.05688 25.6341 0.763466 25.9707 0.559324 26.361C-0.534945 28.2022 0.188224 31.2471 0.930424 33.6831C1.65359 36.0048 3.71843 38.4407 6.28282 38.4407C6.52547 38.4407 6.76811 38.4407 6.89657 38.3313C9.21832 37.846 10.3173 35.6385 11.7637 34.0589C13.976 31.623 16.8925 30.267 19.4569 28.4448C19.5663 28.4448 19.6995 28.3164 19.8089 28.3164C20.2588 28.1605 20.6438 27.8592 20.9032 27.46C21.5169 27.1079 21.6454 26.3657 21.4028 25.752" fill="#D95264"/>
<path d="M52.0059 18.8027C50.0553 17.2041 48.2331 16.3477 46.4109 16.2383H45.3166C43.1043 16.6094 41.5248 18.0605 40.911 20.3822C40.911 20.5107 40.4257 21.7382 36.0439 23.0751L32.1426 24.0409C32.0141 24.0409 31.7715 24.0409 31.6573 24.1693C31.172 24.2788 30.6725 24.2788 30.3204 24.5405C29.961 24.7886 29.7018 25.1567 29.5893 25.5787C29.4768 26.0008 29.5184 26.4491 29.7066 26.8432C30.1919 27.828 31.6573 28.4418 34.0932 28.5512H35.0591C37.0097 28.5512 39.7073 28.3085 42.8664 27.9374L44.2224 27.6948C52.2676 26.4863 54.8177 25.63 55.4267 23.6793C55.7978 22.0807 54.1992 20.6106 52.0059 18.7932" fill="#3DA988"/>
<path d="M31.0414 43.4667C31.1699 41.7587 31.1699 38.5806 30.9129 36.8678C30.5609 34.1749 29.224 32.3527 27.9965 30.8826C27.3827 30.1594 25.9174 28.5609 24.7089 28.5609C24.5478 28.5571 24.3878 28.5883 24.24 28.6523C24.0921 28.7164 23.9599 28.8118 23.8525 28.932C23.4814 29.3031 23.3672 30.0262 23.3672 31.1253L23.4767 33.5802V34.546C23.4799 36.8739 23.3624 39.2004 23.1246 41.516C22.9961 42.2392 22.8629 42.9671 22.5109 43.5809C21.174 46.1453 22.0113 50.1798 23.4767 52.5016C24.4615 54.2096 25.7984 55.0659 27.2686 55.0659H27.8633C27.9917 55.0659 28.1249 55.0659 28.2344 54.9375C28.8481 54.8281 29.2192 54.3237 29.7045 53.8432C30.0566 53.3579 30.4277 52.8584 30.6703 52.2637C31.1699 51.1694 31.1699 48.9571 31.0414 45.9074V43.4667Z" fill="#393B79"/>
<path d="M29.4625 6.8368C29.8145 6.11363 30.3189 5.12879 29.9478 4.02976C29.5767 2.55964 27.626 1.22273 26.6602 0.742199C25.6944 0.261672 24.819 0 23.9673 0H23.3726C22.8123 0.142632 22.303 0.439287 21.9025 0.856384C21.774 1.09903 21.6599 1.22748 21.5314 1.47013C20.675 3.31135 20.675 5.01936 20.5656 6.97002V7.58376C20.4371 9.03485 20.675 14.7774 21.1793 17.3418C21.9025 20.7626 22.8683 22.5848 24.4669 22.9559C25.1901 23.1985 25.8038 23.1985 26.2891 23.1985H26.9028C28.725 22.8464 29.0961 21.1337 29.3388 19.2972C29.5814 17.8271 29.3388 16.3617 29.2293 15.0248C28.9677 13.2026 28.8582 8.68754 29.2293 7.3316L29.472 6.84632" fill="#7E3A74"/>
<path d="M37.8594 67.0117H136.619" stroke="#393B79" stroke-width="0.547134" stroke-miterlimit="22.926"/>
<path fill-rule="evenodd" clip-rule="evenodd" d="M133.703 73.6109H134.317V70.937L136.025 73.6156H136.51V69.7143H135.896V72.2787L134.188 69.7143H133.575L133.703 73.6109ZM130.768 72.1407L131.381 70.5612L131.995 72.1407H130.768ZM129.673 73.6109H130.287L130.658 72.7545H132.128L132.48 73.6109H133.094L131.624 69.7096H131.029L129.673 73.6109ZM127.723 71.7887V70.3186H128.336C128.836 70.3186 129.079 70.5612 129.079 71.0417C129.079 71.5222 128.836 71.7839 128.336 71.7839L127.723 71.7887ZM127.128 73.6109H127.723V72.3834H128.336C129.193 72.3834 129.806 71.8981 129.806 71.0465C129.806 70.1949 129.321 69.7096 128.47 69.7096H127.242L127.128 73.6109ZM124.192 72.1407L124.806 70.5612L125.42 72.1407H124.192ZM123.098 73.6109H123.712L124.083 72.7545H125.534L125.905 73.6109H126.519L125.049 69.7096H124.435L123.098 73.6109ZM121.519 73.6109C121.821 73.6104 122.117 73.5264 122.375 73.3682C122.618 73.1256 122.727 72.8829 122.727 72.3834V69.7096H122.004V72.3881C122.004 72.8877 121.761 73.0019 121.519 73.0019C121.276 73.0019 121.033 72.8925 120.905 72.6498L120.534 73.1351C120.795 73.5062 121.033 73.6204 121.519 73.6204V73.6109ZM117.855 74.4673C118.34 74.4673 118.712 74.0962 118.712 73.6109V72.9971H117.988V73.7393H118.231C118.231 73.982 118.103 74.2246 117.746 74.2246L117.855 74.4673ZM115.79 73.1303C115.177 73.1303 114.677 72.5166 114.677 71.7934C114.677 70.937 115.177 70.4375 115.79 70.4375C116.404 70.4375 116.885 71.0512 116.885 71.7934C116.885 72.5356 116.385 73.1303 115.79 73.1303ZM115.79 73.6156C116.756 73.6156 117.479 72.7592 117.479 71.665C117.479 70.5707 116.756 69.7143 115.79 69.7143C114.825 69.7143 114.082 70.5707 114.082 71.665C114.082 72.8925 114.805 73.6156 115.79 73.6156ZM110.662 73.6156H111.275V72.0361H112.745V73.6156H113.469V69.7143H112.855V71.2939H111.385V69.7143H110.79L110.662 73.6156ZM108.711 73.6156C109.434 73.6156 109.938 73.1303 109.938 72.5214C109.938 71.9124 109.567 71.665 108.844 71.4271C108.23 71.1844 107.988 71.056 107.988 70.8134C107.988 70.5707 108.23 70.3281 108.582 70.3281C108.742 70.3206 108.902 70.3482 109.05 70.4091C109.198 70.4699 109.33 70.5624 109.439 70.6801L109.81 70.1948C109.654 70.0284 109.463 69.8986 109.251 69.8146C109.038 69.7307 108.81 69.6949 108.582 69.7096C107.859 69.7096 107.374 70.1948 107.374 70.8038C107.374 71.4128 107.745 71.6602 108.468 72.0313C109.082 72.274 109.191 72.3834 109.191 72.6451C109.191 72.9067 108.949 73.1303 108.578 73.1303C108.207 73.1303 107.855 72.8877 107.612 72.6451L107.369 73.1303C107.74 73.5014 108.23 73.6156 108.711 73.6156ZM105.423 73.6156C106.28 73.6156 106.893 73.1303 106.893 72.0361V69.7143H106.151V72.1503C106.151 72.764 105.799 73.1351 105.295 73.1351C104.791 73.1351 104.438 72.764 104.438 72.1503V69.7143H103.844V72.1503C103.953 73.1351 104.567 73.6156 105.423 73.6156ZM102.136 73.6156C102.859 73.6156 103.344 73.1303 103.344 72.5214C103.344 71.9124 102.992 71.665 102.25 71.4271C101.655 71.1844 101.394 71.056 101.394 70.8134C101.394 70.5707 101.655 70.3281 102.007 70.3281C102.167 70.3206 102.327 70.3482 102.475 70.4091C102.623 70.4699 102.755 70.5624 102.864 70.6801L103.235 70.1948C103.078 70.0297 102.886 69.9008 102.675 69.8169C102.463 69.7331 102.235 69.6965 102.007 69.7096C101.284 69.7096 100.799 70.1948 100.799 70.8038C100.799 71.4128 101.151 71.6602 101.893 72.0313C102.488 72.274 102.616 72.3834 102.616 72.6451C102.616 72.9067 102.374 73.1303 102.003 73.1303C101.631 73.1303 101.279 72.8877 101.037 72.6451L100.666 73.1303C101.037 73.5014 101.65 73.6156 102.136 73.6156ZM98.8482 73.6156H99.4429V70.3281H100.428V69.7143H97.7539V70.3281H98.8482V73.6156ZM93.8479 72.1455L94.4426 70.566L95.0563 72.1455H93.8479ZM92.6204 73.6156H93.2341L93.6052 72.7592H95.0563L95.4274 73.6156H96.0412L94.571 69.7143H93.9573L92.6204 73.6156ZM91.0408 73.6156H91.6546V70.3281H92.7488V69.7143H90.056V70.3281H91.0408V73.6156ZM88.1053 73.1303C87.5106 73.1303 87.0111 72.5166 87.0111 71.7934C87.0111 70.937 87.5106 70.4375 88.1053 70.4375C88.7001 70.4375 89.1996 71.0512 89.1996 71.7934C89.0902 72.5166 88.7143 73.1303 88.1053 73.1303ZM88.1053 73.6156C89.0902 73.6156 89.8133 72.7592 89.8133 71.665C89.8133 70.5707 89.0902 69.7143 88.1053 69.7143C87.1205 69.7143 86.3973 70.5707 86.3973 71.665C86.3973 72.8925 87.0111 73.6156 88.1053 73.6156ZM84.3325 73.6156H84.9462V72.0361L86.2831 69.7143H85.56L84.7036 71.4223L83.8472 69.7143H83.105L84.4419 72.0361V73.6156H84.3325ZM81.2828 73.1303C80.6691 73.1303 80.1885 72.5166 80.1885 71.7934C80.1885 70.937 80.6738 70.4375 81.2828 70.4375C81.8918 70.4375 82.3771 71.0512 82.3771 71.7934C82.2486 72.5166 81.8918 73.1303 81.2828 73.1303ZM81.2828 73.6156C82.2486 73.6156 82.9908 72.7592 82.9908 71.665C82.9908 70.5707 82.2486 69.7143 81.2828 69.7143C80.317 69.7143 79.5748 70.5707 79.5748 71.665C79.5748 72.8925 80.298 73.6156 81.2828 73.6156ZM77.6194 73.6156H78.2331V70.3281H79.3274V69.7143H76.6536V70.3281H77.6194V73.6156ZM72.9902 73.1303C72.6191 73.1303 72.3764 72.8877 72.3764 72.6451V72.5166C72.3764 72.274 72.5049 72.0313 72.8617 71.7934L73.6039 72.7592C73.545 72.8711 73.4568 72.9647 73.3486 73.0301C73.2405 73.0955 73.1165 73.1302 72.9902 73.1303ZM73.0996 71.2891C72.8569 71.0465 72.8569 70.9371 72.8569 70.6754C72.8569 70.4137 72.9854 70.1901 73.228 70.1901C73.4707 70.1901 73.5991 70.3186 73.5991 70.5612C73.5991 70.9323 73.4707 71.0465 73.0996 71.2844V71.2891ZM74.4555 73.7441L74.9408 73.373L74.4555 72.7592C74.5649 72.5166 74.8076 72.1455 74.9408 71.7934L74.4555 71.5318L74.0844 72.274L73.4707 71.5318C73.956 71.2891 74.1939 71.0465 74.1939 70.566C74.1939 70.0854 73.8418 69.7096 73.228 69.7096C72.6143 69.7096 72.2432 70.1949 72.2432 70.6754C72.2432 70.9371 72.3717 71.1749 72.6143 71.5318C72.129 71.7934 71.8911 72.1455 71.8911 72.6451C71.8911 72.9353 72.0064 73.2136 72.2116 73.4188C72.4169 73.624 72.6952 73.7393 72.9854 73.7393C73.4707 73.7393 73.7086 73.6109 74.0797 73.2398L74.4508 73.7393L74.4555 73.7441ZM66.5197 73.6156H67.1334V70.9418L68.0993 72.764L69.0841 70.9418V73.6204H69.6978V69.7191H68.9556L67.9898 71.5413L67.1334 69.7191H66.5197V73.6156ZM64.0838 73.1303C63.47 73.1303 62.9895 72.5166 62.9895 71.7934C62.9895 70.937 63.4748 70.4375 64.0838 70.4375C64.6927 70.4375 65.178 71.0512 65.178 71.7934C65.178 72.5356 64.6927 73.1303 64.0838 73.1303ZM64.0838 73.6156C65.0496 73.6156 65.7918 72.7592 65.7918 71.665C65.7918 70.5707 65.0496 69.7143 64.0838 69.7143C63.118 69.7143 62.3758 70.5707 62.3758 71.665C62.3758 72.8925 63.0989 73.6156 64.0838 73.6156ZM60.7962 73.6156C61.2815 73.6156 61.6526 73.5062 62.0047 73.1303L61.6526 72.6451C61.5433 72.7615 61.4103 72.8532 61.2625 72.9139C61.1148 72.9746 60.9558 73.003 60.7962 72.9971C60.1825 72.9971 59.7019 72.5118 59.7019 71.6602C59.7019 70.8086 60.1872 70.3233 60.7962 70.3233C61.1483 70.3233 61.4099 70.4327 61.6526 70.6754L62.0047 70.1901C61.6526 69.9474 61.2815 69.7048 60.7962 69.7048C59.8114 69.7048 59.0882 70.5612 59.0882 71.6555C59.0882 72.8829 59.8114 73.6061 60.7962 73.6061V73.6156ZM56.1479 73.6156H58.6029V73.0019H56.7617V71.9076H58.3603V71.2939H56.7617V70.1996H58.6029V69.5859H56.1479V73.6156ZM54.1973 73.6156C54.9395 73.6156 55.4248 73.1303 55.4248 72.5214C55.4248 71.9124 55.0537 71.665 54.3305 71.4271C53.7168 71.1844 53.4741 71.056 53.4741 70.8134C53.4741 70.5707 53.7168 70.3281 54.0879 70.3281C54.2477 70.3206 54.4072 70.3482 54.5551 70.4091C54.7031 70.4699 54.8359 70.5624 54.9442 70.6801L55.3153 70.1948C55.1582 70.0297 54.967 69.9008 54.7551 69.8169C54.5431 69.7331 54.3154 69.6965 54.0879 69.7096C53.3647 69.7096 52.8604 70.1948 52.8604 70.8038C52.8604 71.4128 53.2315 71.6602 53.9546 72.0313C54.5684 72.274 54.6968 72.3834 54.6968 72.6451C54.6968 72.9067 54.4542 73.1303 54.0831 73.1303C53.712 73.1303 53.3599 72.8877 53.0983 72.6451L52.7462 73.1303C53.0983 73.5014 53.712 73.6156 54.1973 73.6156ZM49.8107 72.7592L49.0875 70.6801H48.4738L49.568 73.6156C49.4586 73.8583 49.3254 73.9867 49.1969 73.9867C49.0685 73.9867 48.9543 73.9867 48.8449 73.8583L48.7164 74.3578C48.8449 74.4673 49.0875 74.4673 49.3302 74.4673C49.8154 74.4673 49.9439 74.2246 50.1865 73.6109L51.1524 70.6754H50.5576L49.8107 72.7592ZM47.0037 73.1303C46.6516 73.1303 46.2805 72.7592 46.2805 72.1455C46.2805 71.5318 46.6516 71.1797 47.0037 71.1797C47.3557 71.1797 47.7459 71.5318 47.7459 72.1455C47.6174 72.7592 47.3748 73.1303 47.0037 73.1303ZM47.1321 73.6156C47.7459 73.6156 48.2264 73.1303 48.2264 72.1455V72.0361C48.2264 71.0512 47.6126 70.566 47.1321 70.566C46.9604 70.57 46.7924 70.6164 46.643 70.7011C46.4936 70.7858 46.3674 70.906 46.2757 71.0512V69.4717H45.6667V73.5062H46.2805V73.0066C46.5231 73.3777 46.7658 73.6204 47.1369 73.6204L47.1321 73.6156ZM41.8891 73.6156H42.5029L43.8398 69.7143H43.0976L42.1318 72.6498L41.166 69.7143H40.4238L41.8939 73.6156H41.8891ZM38.8395 73.6156C39.1418 73.6152 39.4382 73.5312 39.6958 73.373C39.9385 73.1303 40.0479 72.8877 40.0479 72.3881V69.7143H39.4532V72.3929C39.4532 72.8925 39.2106 73.0066 38.9536 73.0066C38.6967 73.0066 38.4684 72.8972 38.3589 72.6546L37.8594 73.1399C38.102 73.511 38.3589 73.6251 38.8442 73.6251L38.8395 73.6156Z" fill="#393B79"/>
</svg>
